<mxfile host="app.diagrams.net" modified="2024-06-22T11:47:10.474Z" agent="Mozilla/5.0 (Macintosh; Intel Mac OS X 10_15_7) AppleWebKit/537.36 (KHTML, like Gecko) Chrome/126.0.0.0 Safari/537.36 Edg/126.0.0.0" etag="6j8MIR4Ru1nlDEhf_LcV" version="24.4.14" type="github">
  <diagram id="prtHgNgQTEPvFCAcTncT" name="Page-1">
    <mxGraphModel dx="1243" dy="754" grid="1" gridSize="10" guides="1" tooltips="1" connect="1" arrows="1" fold="1" page="1" pageScale="1" pageWidth="827" pageHeight="1169" math="0" shadow="0">
      <root>
        <mxCell id="0" />
        <mxCell id="1" parent="0" />
        <mxCell id="tmySvrbRdzc1KA4MEMWT-1" value="api借款hold单" style="swimlane;childLayout=stackLayout;resizeParent=1;resizeParentMax=0;startSize=20;html=1;labelBackgroundColor=none;fillColor=#B2C9AB;strokeColor=#788AA3;fontColor=#46495D;" vertex="1" parent="1">
          <mxGeometry x="190" y="250" width="1220" height="800" as="geometry" />
        </mxCell>
        <mxCell id="tmySvrbRdzc1KA4MEMWT-5" value="xyf-app-api" style="swimlane;startSize=20;html=1;labelBackgroundColor=none;fillColor=#B2C9AB;strokeColor=#788AA3;fontColor=#46495D;" vertex="1" parent="tmySvrbRdzc1KA4MEMWT-1">
          <mxGeometry y="20" width="160" height="780" as="geometry" />
        </mxCell>
        <mxCell id="tmySvrbRdzc1KA4MEMWT-35" value="登录app" style="whiteSpace=wrap;html=1;fillColor=#f8cecc;strokeColor=#b85450;rounded=0;fontFamily=Helvetica;fontSize=11;labelBackgroundColor=none;" vertex="1" parent="tmySvrbRdzc1KA4MEMWT-5">
          <mxGeometry x="35" y="470" width="90" height="40" as="geometry" />
        </mxCell>
        <mxCell id="tmySvrbRdzc1KA4MEMWT-37" value="rabbitmq" style="strokeWidth=2;html=1;shape=mxgraph.flowchart.direct_data;whiteSpace=wrap;strokeColor=#788AA3;fontFamily=Helvetica;fontSize=11;fontColor=#46495D;labelBackgroundColor=default;fillColor=#B2C9AB;" vertex="1" parent="tmySvrbRdzc1KA4MEMWT-5">
          <mxGeometry x="30" y="560" width="100" height="60" as="geometry" />
        </mxCell>
        <mxCell id="tmySvrbRdzc1KA4MEMWT-38" style="edgeStyle=orthogonalEdgeStyle;curved=0;rounded=1;orthogonalLoop=1;jettySize=auto;html=1;entryX=0.5;entryY=0;entryDx=0;entryDy=0;entryPerimeter=0;strokeColor=#788AA3;align=center;verticalAlign=middle;fontFamily=Helvetica;fontSize=11;fontColor=#46495D;labelBackgroundColor=default;endArrow=classic;fillColor=#B2C9AB;" edge="1" parent="tmySvrbRdzc1KA4MEMWT-5" source="tmySvrbRdzc1KA4MEMWT-35" target="tmySvrbRdzc1KA4MEMWT-37">
          <mxGeometry relative="1" as="geometry" />
        </mxCell>
        <mxCell id="tmySvrbRdzc1KA4MEMWT-2" value="apiopfcore" style="swimlane;startSize=20;html=1;labelBackgroundColor=none;fillColor=#B2C9AB;strokeColor=#788AA3;fontColor=#46495D;" vertex="1" parent="tmySvrbRdzc1KA4MEMWT-1">
          <mxGeometry x="160" y="20" width="230" height="780" as="geometry" />
        </mxCell>
        <mxCell id="tmySvrbRdzc1KA4MEMWT-13" value="" style="edgeStyle=orthogonalEdgeStyle;rounded=0;orthogonalLoop=1;jettySize=auto;html=1;strokeColor=#788AA3;fontColor=#46495D;fillColor=#B2C9AB;" edge="1" parent="tmySvrbRdzc1KA4MEMWT-2" source="tmySvrbRdzc1KA4MEMWT-8" target="tmySvrbRdzc1KA4MEMWT-12">
          <mxGeometry relative="1" as="geometry" />
        </mxCell>
        <mxCell id="tmySvrbRdzc1KA4MEMWT-8" value="借款试算" style="rounded=0;whiteSpace=wrap;html=1;strokeColor=#788AA3;fontColor=#46495D;fillColor=#B2C9AB;" vertex="1" parent="tmySvrbRdzc1KA4MEMWT-2">
          <mxGeometry x="70" y="50" width="90" height="40" as="geometry" />
        </mxCell>
        <mxCell id="tmySvrbRdzc1KA4MEMWT-25" value="" style="edgeStyle=orthogonalEdgeStyle;curved=0;rounded=1;orthogonalLoop=1;jettySize=auto;html=1;strokeColor=#788AA3;align=center;verticalAlign=middle;fontFamily=Helvetica;fontSize=11;fontColor=#46495D;labelBackgroundColor=default;endArrow=classic;fillColor=#B2C9AB;" edge="1" parent="tmySvrbRdzc1KA4MEMWT-2" source="tmySvrbRdzc1KA4MEMWT-12" target="tmySvrbRdzc1KA4MEMWT-24">
          <mxGeometry relative="1" as="geometry" />
        </mxCell>
        <mxCell id="tmySvrbRdzc1KA4MEMWT-12" value="借款申请" style="rounded=0;whiteSpace=wrap;html=1;strokeColor=#788AA3;fontColor=#46495D;fillColor=#B2C9AB;" vertex="1" parent="tmySvrbRdzc1KA4MEMWT-2">
          <mxGeometry x="70" y="180" width="90" height="40" as="geometry" />
        </mxCell>
        <mxCell id="tmySvrbRdzc1KA4MEMWT-40" value="" style="edgeStyle=orthogonalEdgeStyle;curved=0;rounded=1;orthogonalLoop=1;jettySize=auto;html=1;strokeColor=#788AA3;align=center;verticalAlign=middle;fontFamily=Helvetica;fontSize=11;fontColor=#46495D;labelBackgroundColor=default;endArrow=classic;fillColor=#B2C9AB;" edge="1" parent="tmySvrbRdzc1KA4MEMWT-2" source="tmySvrbRdzc1KA4MEMWT-24" target="tmySvrbRdzc1KA4MEMWT-39">
          <mxGeometry relative="1" as="geometry" />
        </mxCell>
        <mxCell id="tmySvrbRdzc1KA4MEMWT-24" value="请求借款" style="rounded=0;whiteSpace=wrap;html=1;strokeColor=#788AA3;fontColor=#46495D;fillColor=#B2C9AB;" vertex="1" parent="tmySvrbRdzc1KA4MEMWT-2">
          <mxGeometry x="70" y="260" width="90" height="40" as="geometry" />
        </mxCell>
        <mxCell id="tmySvrbRdzc1KA4MEMWT-39" value="将相关数据存入表中" style="whiteSpace=wrap;html=1;fillColor=#B2C9AB;strokeColor=#788AA3;fontColor=#46495D;rounded=0;" vertex="1" parent="tmySvrbRdzc1KA4MEMWT-2">
          <mxGeometry x="67.5" y="350" width="95" height="50" as="geometry" />
        </mxCell>
        <mxCell id="tmySvrbRdzc1KA4MEMWT-43" value="判断是否需要取消hold单" style="whiteSpace=wrap;html=1;fontSize=11;fillColor=#B2C9AB;strokeColor=#788AA3;fontColor=#46495D;strokeWidth=2;labelBackgroundColor=default;" vertex="1" parent="tmySvrbRdzc1KA4MEMWT-2">
          <mxGeometry x="55" y="560" width="125" height="60" as="geometry" />
        </mxCell>
        <mxCell id="tmySvrbRdzc1KA4MEMWT-7" value="apiopfcore存储" style="swimlane;startSize=20;html=1;labelBackgroundColor=none;fillColor=#B2C9AB;strokeColor=#788AA3;fontColor=#46495D;" vertex="1" parent="tmySvrbRdzc1KA4MEMWT-1">
          <mxGeometry x="390" y="20" width="170" height="780" as="geometry" />
        </mxCell>
        <mxCell id="tmySvrbRdzc1KA4MEMWT-14" value="redis" style="shape=datastore;whiteSpace=wrap;html=1;strokeColor=#788AA3;fontColor=#46495D;fillColor=#B2C9AB;" vertex="1" parent="tmySvrbRdzc1KA4MEMWT-7">
          <mxGeometry x="60" y="110" width="35" height="30" as="geometry" />
        </mxCell>
        <mxCell id="tmySvrbRdzc1KA4MEMWT-15" value="" style="endArrow=classic;html=1;rounded=0;strokeColor=#788AA3;fontColor=#46495D;fillColor=#B2C9AB;entryX=0.5;entryY=0;entryDx=0;entryDy=0;" edge="1" parent="tmySvrbRdzc1KA4MEMWT-7" target="tmySvrbRdzc1KA4MEMWT-14">
          <mxGeometry width="50" height="50" relative="1" as="geometry">
            <mxPoint x="79.99999999999955" y="70" as="sourcePoint" />
            <mxPoint x="129.99999999999955" y="180" as="targetPoint" />
          </mxGeometry>
        </mxCell>
        <mxCell id="tmySvrbRdzc1KA4MEMWT-19" style="edgeStyle=orthogonalEdgeStyle;rounded=0;orthogonalLoop=1;jettySize=auto;html=1;entryX=0.5;entryY=1;entryDx=0;entryDy=0;strokeColor=#788AA3;fontColor=#46495D;fillColor=#B2C9AB;" edge="1" parent="tmySvrbRdzc1KA4MEMWT-7" source="tmySvrbRdzc1KA4MEMWT-16" target="tmySvrbRdzc1KA4MEMWT-14">
          <mxGeometry relative="1" as="geometry" />
        </mxCell>
        <mxCell id="tmySvrbRdzc1KA4MEMWT-21" value="1.先从redis获取" style="edgeLabel;html=1;align=center;verticalAlign=middle;resizable=0;points=[];strokeColor=#788AA3;fontColor=#46495D;fillColor=#B2C9AB;" vertex="1" connectable="0" parent="tmySvrbRdzc1KA4MEMWT-19">
          <mxGeometry x="0.05" relative="1" as="geometry">
            <mxPoint as="offset" />
          </mxGeometry>
        </mxCell>
        <mxCell id="tmySvrbRdzc1KA4MEMWT-16" value="获取用户是否需要hold单" style="rounded=0;whiteSpace=wrap;html=1;strokeColor=#788AA3;fontColor=#46495D;fillColor=#B2C9AB;" vertex="1" parent="tmySvrbRdzc1KA4MEMWT-7">
          <mxGeometry x="32.499999999999545" y="180" width="90" height="40" as="geometry" />
        </mxCell>
        <mxCell id="tmySvrbRdzc1KA4MEMWT-41" value="mysql" style="strokeWidth=2;html=1;shape=mxgraph.flowchart.database;whiteSpace=wrap;strokeColor=#788AA3;fontFamily=Helvetica;fontSize=11;fontColor=#46495D;labelBackgroundColor=default;fillColor=#B2C9AB;" vertex="1" parent="tmySvrbRdzc1KA4MEMWT-7">
          <mxGeometry x="60" y="345" width="60" height="60" as="geometry" />
        </mxCell>
        <mxCell id="tmySvrbRdzc1KA4MEMWT-3" value="xyf-cdp麻雀" style="swimlane;startSize=20;html=1;labelBackgroundColor=none;fillColor=#B2C9AB;strokeColor=#788AA3;fontColor=#46495D;" vertex="1" parent="tmySvrbRdzc1KA4MEMWT-1">
          <mxGeometry x="560" y="20" width="180" height="780" as="geometry" />
        </mxCell>
        <mxCell id="tmySvrbRdzc1KA4MEMWT-9" value="是否hold单接口" style="rounded=0;whiteSpace=wrap;html=1;strokeColor=#788AA3;fontColor=#46495D;fillColor=#B2C9AB;" vertex="1" parent="tmySvrbRdzc1KA4MEMWT-3">
          <mxGeometry x="45" y="50" width="90" height="40" as="geometry" />
        </mxCell>
        <mxCell id="tmySvrbRdzc1KA4MEMWT-4" value="lendtrade" style="swimlane;startSize=20;html=1;labelBackgroundColor=none;fillColor=#B2C9AB;strokeColor=#788AA3;fontColor=#46495D;" vertex="1" parent="tmySvrbRdzc1KA4MEMWT-1">
          <mxGeometry x="740" y="20" width="160" height="780" as="geometry" />
        </mxCell>
        <mxCell id="tmySvrbRdzc1KA4MEMWT-23" value="下单接口" style="rounded=0;whiteSpace=wrap;html=1;strokeColor=#788AA3;fontColor=#46495D;fillColor=#B2C9AB;" vertex="1" parent="tmySvrbRdzc1KA4MEMWT-4">
          <mxGeometry x="34.999999999999545" y="260" width="90" height="40" as="geometry" />
        </mxCell>
        <mxCell id="tmySvrbRdzc1KA4MEMWT-6" value="营销触达(短信/电销...)" style="swimlane;startSize=20;html=1;labelBackgroundColor=none;fillColor=#B2C9AB;strokeColor=#788AA3;fontColor=#46495D;" vertex="1" parent="tmySvrbRdzc1KA4MEMWT-1">
          <mxGeometry x="900" y="20" width="160" height="780" as="geometry" />
        </mxCell>
        <mxCell id="tmySvrbRdzc1KA4MEMWT-28" value="营销触达，谁来触发，怎么触发" style="rounded=0;whiteSpace=wrap;html=1;strokeColor=#b85450;fillColor=#f8cecc;" vertex="1" parent="tmySvrbRdzc1KA4MEMWT-6">
          <mxGeometry x="40" y="315" width="90" height="55" as="geometry" />
        </mxCell>
        <mxCell id="tmySvrbRdzc1KA4MEMWT-29" value="下载app落地页" style="swimlane;startSize=20;html=1;labelBackgroundColor=none;fillColor=#B2C9AB;strokeColor=#788AA3;fontColor=#46495D;" vertex="1" parent="tmySvrbRdzc1KA4MEMWT-1">
          <mxGeometry x="1060" y="20" width="160" height="780" as="geometry" />
        </mxCell>
        <mxCell id="tmySvrbRdzc1KA4MEMWT-34" value="" style="edgeStyle=orthogonalEdgeStyle;curved=0;rounded=1;orthogonalLoop=1;jettySize=auto;html=1;strokeColor=#788AA3;align=center;verticalAlign=middle;fontFamily=Helvetica;fontSize=11;fontColor=#46495D;labelBackgroundColor=default;endArrow=classic;fillColor=#B2C9AB;" edge="1" parent="tmySvrbRdzc1KA4MEMWT-29" source="tmySvrbRdzc1KA4MEMWT-30" target="tmySvrbRdzc1KA4MEMWT-33">
          <mxGeometry relative="1" as="geometry" />
        </mxCell>
        <mxCell id="tmySvrbRdzc1KA4MEMWT-30" value="注册下载app的落地页" style="rounded=0;whiteSpace=wrap;html=1;strokeColor=#788AA3;fontColor=#46495D;fillColor=#B2C9AB;" vertex="1" parent="tmySvrbRdzc1KA4MEMWT-29">
          <mxGeometry x="34.999999999999545" y="390" width="90" height="40" as="geometry" />
        </mxCell>
        <mxCell id="tmySvrbRdzc1KA4MEMWT-33" value="下载信飞app" style="whiteSpace=wrap;html=1;fillColor=#B2C9AB;strokeColor=#788AA3;fontColor=#46495D;rounded=0;" vertex="1" parent="tmySvrbRdzc1KA4MEMWT-29">
          <mxGeometry x="35" y="470" width="90" height="40" as="geometry" />
        </mxCell>
        <mxCell id="tmySvrbRdzc1KA4MEMWT-10" style="edgeStyle=orthogonalEdgeStyle;rounded=0;orthogonalLoop=1;jettySize=auto;html=1;strokeColor=#788AA3;fontColor=#46495D;fillColor=#B2C9AB;" edge="1" parent="tmySvrbRdzc1KA4MEMWT-1" source="tmySvrbRdzc1KA4MEMWT-8" target="tmySvrbRdzc1KA4MEMWT-9">
          <mxGeometry relative="1" as="geometry" />
        </mxCell>
        <mxCell id="tmySvrbRdzc1KA4MEMWT-11" value="异步请求，后缓存结果到redis" style="edgeLabel;html=1;align=center;verticalAlign=middle;resizable=0;points=[];strokeColor=#788AA3;fontColor=#46495D;fillColor=#B2C9AB;" vertex="1" connectable="0" parent="tmySvrbRdzc1KA4MEMWT-10">
          <mxGeometry x="0.0129" y="1" relative="1" as="geometry">
            <mxPoint as="offset" />
          </mxGeometry>
        </mxCell>
        <mxCell id="tmySvrbRdzc1KA4MEMWT-17" style="edgeStyle=orthogonalEdgeStyle;rounded=1;orthogonalLoop=1;jettySize=auto;html=1;strokeColor=#788AA3;fontColor=#46495D;fillColor=#B2C9AB;curved=0;" edge="1" parent="tmySvrbRdzc1KA4MEMWT-1" source="tmySvrbRdzc1KA4MEMWT-12" target="tmySvrbRdzc1KA4MEMWT-16">
          <mxGeometry relative="1" as="geometry" />
        </mxCell>
        <mxCell id="tmySvrbRdzc1KA4MEMWT-20" style="edgeStyle=orthogonalEdgeStyle;rounded=1;orthogonalLoop=1;jettySize=auto;html=1;entryX=0.5;entryY=1;entryDx=0;entryDy=0;strokeColor=#788AA3;fontColor=#46495D;fillColor=#B2C9AB;curved=0;" edge="1" parent="tmySvrbRdzc1KA4MEMWT-1" source="tmySvrbRdzc1KA4MEMWT-16" target="tmySvrbRdzc1KA4MEMWT-9">
          <mxGeometry relative="1" as="geometry" />
        </mxCell>
        <mxCell id="tmySvrbRdzc1KA4MEMWT-22" value="2.redis没有,再从接口获取" style="edgeLabel;html=1;align=center;verticalAlign=middle;resizable=0;points=[];strokeColor=#788AA3;fontColor=#46495D;fillColor=#B2C9AB;" vertex="1" connectable="0" parent="tmySvrbRdzc1KA4MEMWT-20">
          <mxGeometry x="0.3655" relative="1" as="geometry">
            <mxPoint as="offset" />
          </mxGeometry>
        </mxCell>
        <mxCell id="tmySvrbRdzc1KA4MEMWT-26" style="edgeStyle=orthogonalEdgeStyle;curved=0;rounded=1;orthogonalLoop=1;jettySize=auto;html=1;strokeColor=#788AA3;align=center;verticalAlign=middle;fontFamily=Helvetica;fontSize=11;fontColor=#46495D;labelBackgroundColor=default;endArrow=classic;fillColor=#B2C9AB;" edge="1" parent="tmySvrbRdzc1KA4MEMWT-1" source="tmySvrbRdzc1KA4MEMWT-24" target="tmySvrbRdzc1KA4MEMWT-23">
          <mxGeometry relative="1" as="geometry" />
        </mxCell>
        <mxCell id="tmySvrbRdzc1KA4MEMWT-27" value="在bizData入参传入是否hold单及hold单时长" style="edgeLabel;html=1;align=center;verticalAlign=middle;resizable=0;points=[];strokeColor=#788AA3;fontFamily=Helvetica;fontSize=11;fontColor=#46495D;labelBackgroundColor=default;fillColor=#B2C9AB;" vertex="1" connectable="0" parent="tmySvrbRdzc1KA4MEMWT-26">
          <mxGeometry x="-0.0279" relative="1" as="geometry">
            <mxPoint as="offset" />
          </mxGeometry>
        </mxCell>
        <mxCell id="tmySvrbRdzc1KA4MEMWT-31" style="edgeStyle=orthogonalEdgeStyle;curved=0;rounded=1;orthogonalLoop=1;jettySize=auto;html=1;entryX=0.456;entryY=-0.039;entryDx=0;entryDy=0;strokeColor=#788AA3;align=center;verticalAlign=middle;fontFamily=Helvetica;fontSize=11;fontColor=#46495D;labelBackgroundColor=default;endArrow=classic;fillColor=#B2C9AB;entryPerimeter=0;" edge="1" parent="tmySvrbRdzc1KA4MEMWT-1" source="tmySvrbRdzc1KA4MEMWT-28" target="tmySvrbRdzc1KA4MEMWT-30">
          <mxGeometry relative="1" as="geometry">
            <Array as="points">
              <mxPoint x="1136" y="360" />
            </Array>
          </mxGeometry>
        </mxCell>
        <mxCell id="tmySvrbRdzc1KA4MEMWT-32" value="用户访问" style="edgeLabel;html=1;align=center;verticalAlign=middle;resizable=0;points=[];strokeColor=#788AA3;fontFamily=Helvetica;fontSize=11;fontColor=#46495D;labelBackgroundColor=default;fillColor=#B2C9AB;" vertex="1" connectable="0" parent="tmySvrbRdzc1KA4MEMWT-31">
          <mxGeometry x="0.2027" y="-3" relative="1" as="geometry">
            <mxPoint as="offset" />
          </mxGeometry>
        </mxCell>
        <mxCell id="tmySvrbRdzc1KA4MEMWT-36" style="edgeStyle=orthogonalEdgeStyle;curved=0;rounded=1;orthogonalLoop=1;jettySize=auto;html=1;strokeColor=#788AA3;align=center;verticalAlign=middle;fontFamily=Helvetica;fontSize=11;fontColor=#46495D;labelBackgroundColor=default;endArrow=classic;fillColor=#B2C9AB;" edge="1" parent="tmySvrbRdzc1KA4MEMWT-1" source="tmySvrbRdzc1KA4MEMWT-33" target="tmySvrbRdzc1KA4MEMWT-35">
          <mxGeometry relative="1" as="geometry" />
        </mxCell>
        <mxCell id="tmySvrbRdzc1KA4MEMWT-42" style="edgeStyle=orthogonalEdgeStyle;curved=0;rounded=1;orthogonalLoop=1;jettySize=auto;html=1;entryX=0;entryY=0.5;entryDx=0;entryDy=0;entryPerimeter=0;strokeColor=#788AA3;align=center;verticalAlign=middle;fontFamily=Helvetica;fontSize=11;fontColor=#46495D;labelBackgroundColor=default;endArrow=classic;fillColor=#B2C9AB;" edge="1" parent="tmySvrbRdzc1KA4MEMWT-1" source="tmySvrbRdzc1KA4MEMWT-39" target="tmySvrbRdzc1KA4MEMWT-41">
          <mxGeometry relative="1" as="geometry" />
        </mxCell>
        <mxCell id="tmySvrbRdzc1KA4MEMWT-44" value="" style="edgeStyle=orthogonalEdgeStyle;curved=0;rounded=1;orthogonalLoop=1;jettySize=auto;html=1;strokeColor=#788AA3;align=center;verticalAlign=middle;fontFamily=Helvetica;fontSize=11;fontColor=#46495D;labelBackgroundColor=default;endArrow=classic;fillColor=#B2C9AB;" edge="1" parent="tmySvrbRdzc1KA4MEMWT-1" source="tmySvrbRdzc1KA4MEMWT-37" target="tmySvrbRdzc1KA4MEMWT-43">
          <mxGeometry relative="1" as="geometry" />
        </mxCell>
        <mxCell id="tmySvrbRdzc1KA4MEMWT-45" value="消费数据" style="edgeLabel;html=1;align=center;verticalAlign=middle;resizable=0;points=[];strokeColor=#788AA3;fontFamily=Helvetica;fontSize=11;fontColor=#46495D;labelBackgroundColor=default;fillColor=#B2C9AB;" vertex="1" connectable="0" parent="tmySvrbRdzc1KA4MEMWT-44">
          <mxGeometry x="-0.1517" relative="1" as="geometry">
            <mxPoint as="offset" />
          </mxGeometry>
        </mxCell>
      </root>
    </mxGraphModel>
  </diagram>
</mxfile>
